<?xml version="1.0" encoding="UTF-8" standalone="no"?>
<!DOCTYPE svg PUBLIC "-//W3C//DTD SVG 1.1//EN"
 "http://www.w3.org/Graphics/SVG/1.1/DTD/svg11.dtd">
<!-- Generated by graphviz version 2.38.0 (20140413.2041)
 -->
<!-- Title: snakemake_dag Pages: 1 -->
<svg width="1290pt" height="692pt"
 viewBox="0.00 0.00 1289.50 692.00" xmlns="http://www.w3.org/2000/svg" xmlns:xlink="http://www.w3.org/1999/xlink">
<g id="graph0" class="graph" transform="scale(1 1) rotate(0) translate(4 688)">
<title>snakemake_dag</title>
<polygon fill="white" stroke="none" points="-4,4 -4,-688 1285.5,-688 1285.5,4 -4,4"/>
<!-- 0 -->
<g id="node1" class="node"><title>0</title>
<path fill="none" stroke="#61d856" stroke-width="2" d="M635,-36C635,-36 605,-36 605,-36 599,-36 593,-30 593,-24 593,-24 593,-12 593,-12 593,-6 599,-0 605,-0 605,-0 635,-0 635,-0 641,-0 647,-6 647,-12 647,-12 647,-24 647,-24 647,-30 641,-36 635,-36"/>
<text text-anchor="middle" x="620" y="-15.5" font-family="sans" font-size="10.00">all</text>
</g>
<!-- 1 -->
<g id="node2" class="node"><title>1</title>
<path fill="none" stroke="#d86656" stroke-width="2" d="M392.5,-468C392.5,-468 329.5,-468 329.5,-468 323.5,-468 317.5,-462 317.5,-456 317.5,-456 317.5,-444 317.5,-444 317.5,-438 323.5,-432 329.5,-432 329.5,-432 392.5,-432 392.5,-432 398.5,-432 404.5,-438 404.5,-444 404.5,-444 404.5,-456 404.5,-456 404.5,-462 398.5,-468 392.5,-468"/>
<text text-anchor="middle" x="361" y="-447.5" font-family="sans" font-size="10.00">rm_unmapped</text>
</g>
<!-- 1&#45;&gt;0 -->
<g id="edge1" class="edge"><title>1&#45;&gt;0</title>
<path fill="none" stroke="grey" stroke-width="2" d="M343.613,-431.789C287.409,-374.133 119.882,-185.081 219,-72 242.841,-44.8001 488.032,-27.0531 582.849,-21.1609"/>
<polygon fill="grey" stroke="grey" stroke-width="2" points="583.092,-24.6528 592.859,-20.5484 582.664,-17.6658 583.092,-24.6528"/>
</g>
<!-- 9 -->
<g id="node10" class="node"><title>9</title>
<path fill="none" stroke="#d89c56" stroke-width="2" d="M522,-396C522,-396 456,-396 456,-396 450,-396 444,-390 444,-384 444,-384 444,-372 444,-372 444,-366 450,-360 456,-360 456,-360 522,-360 522,-360 528,-360 534,-366 534,-372 534,-372 534,-384 534,-384 534,-390 528,-396 522,-396"/>
<text text-anchor="middle" x="489" y="-375.5" font-family="sans" font-size="10.00">sample_counts</text>
</g>
<!-- 1&#45;&gt;9 -->
<g id="edge31" class="edge"><title>1&#45;&gt;9</title>
<path fill="none" stroke="grey" stroke-width="2" d="M392.312,-431.876C409.203,-422.639 430.247,-411.131 448.385,-401.212"/>
<polygon fill="grey" stroke="grey" stroke-width="2" points="450.473,-404.059 457.567,-396.19 447.114,-397.917 450.473,-404.059"/>
</g>
<!-- 17 -->
<g id="node18" class="node"><title>17</title>
<path fill="none" stroke="#d8cb56" stroke-width="2" d="M166,-324C166,-324 110,-324 110,-324 104,-324 98,-318 98,-312 98,-312 98,-300 98,-300 98,-294 104,-288 110,-288 110,-288 166,-288 166,-288 172,-288 178,-294 178,-300 178,-300 178,-312 178,-312 178,-318 172,-324 166,-324"/>
<text text-anchor="middle" x="138" y="-303.5" font-family="sans" font-size="10.00">merge_bams</text>
</g>
<!-- 1&#45;&gt;17 -->
<g id="edge38" class="edge"><title>1&#45;&gt;17</title>
<path fill="none" stroke="grey" stroke-width="2" d="M317.475,-444.019C280.778,-437.932 228.547,-424.639 192,-396 171.433,-379.884 156.874,-353.585 148.096,-333.746"/>
<polygon fill="grey" stroke="grey" stroke-width="2" points="151.239,-332.189 144.141,-324.323 144.784,-334.898 151.239,-332.189"/>
</g>
<!-- 25 -->
<g id="node26" class="node"><title>25</title>
<path fill="none" stroke="#d6d856" stroke-width="2" d="M381.5,-396C381.5,-396 340.5,-396 340.5,-396 334.5,-396 328.5,-390 328.5,-384 328.5,-384 328.5,-372 328.5,-372 328.5,-366 334.5,-360 340.5,-360 340.5,-360 381.5,-360 381.5,-360 387.5,-360 393.5,-366 393.5,-372 393.5,-372 393.5,-384 393.5,-384 393.5,-390 387.5,-396 381.5,-396"/>
<text text-anchor="middle" x="361" y="-375.5" font-family="sans" font-size="10.00">frip_count</text>
</g>
<!-- 1&#45;&gt;25 -->
<g id="edge50" class="edge"><title>1&#45;&gt;25</title>
<path fill="none" stroke="grey" stroke-width="2" d="M361,-431.697C361,-423.983 361,-414.712 361,-406.112"/>
<polygon fill="grey" stroke="grey" stroke-width="2" points="364.5,-406.104 361,-396.104 357.5,-406.104 364.5,-406.104"/>
</g>
<!-- 2 -->
<g id="node3" class="node"><title>2</title>
<path fill="none" stroke="#56d85b" stroke-width="2" d="M637.5,-684C637.5,-684 524.5,-684 524.5,-684 518.5,-684 512.5,-678 512.5,-672 512.5,-672 512.5,-660 512.5,-660 512.5,-654 518.5,-648 524.5,-648 524.5,-648 637.5,-648 637.5,-648 643.5,-648 649.5,-654 649.5,-660 649.5,-660 649.5,-672 649.5,-672 649.5,-678 643.5,-684 637.5,-684"/>
<text text-anchor="middle" x="581" y="-663.5" font-family="sans" font-size="10.00">mapReads_paired_cases</text>
</g>
<!-- 2&#45;&gt;0 -->
<g id="edge9" class="edge"><title>2&#45;&gt;0</title>
<path fill="none" stroke="grey" stroke-width="2" d="M512.357,-662.617C358.615,-655.414 0,-627.421 0,-523 0,-523 0,-523 0,-161 0,-116.268 9.79477,-96.8346 47,-72 91.463,-42.3208 462.133,-25.221 582.448,-20.4128"/>
<polygon fill="grey" stroke="grey" stroke-width="2" points="582.788,-23.9022 592.642,-20.011 582.512,-16.9077 582.788,-23.9022"/>
</g>
<!-- 4 -->
<g id="node5" class="node"><title>4</title>
<path fill="none" stroke="#56d8b1" stroke-width="2" d="M766.5,-612C766.5,-612 715.5,-612 715.5,-612 709.5,-612 703.5,-606 703.5,-600 703.5,-600 703.5,-588 703.5,-588 703.5,-582 709.5,-576 715.5,-576 715.5,-576 766.5,-576 766.5,-576 772.5,-576 778.5,-582 778.5,-588 778.5,-588 778.5,-600 778.5,-600 778.5,-606 772.5,-612 766.5,-612"/>
<text text-anchor="middle" x="741" y="-591.5" font-family="sans" font-size="10.00">makeTracks</text>
</g>
<!-- 2&#45;&gt;4 -->
<g id="edge24" class="edge"><title>2&#45;&gt;4</title>
<path fill="none" stroke="grey" stroke-width="2" d="M620.14,-647.876C642.42,-638.129 670.479,-625.853 693.952,-615.584"/>
<polygon fill="grey" stroke="grey" stroke-width="2" points="695.607,-618.68 703.365,-611.465 692.801,-612.267 695.607,-618.68"/>
</g>
<!-- 6 -->
<g id="node7" class="node"><title>6</title>
<path fill="none" stroke="#56c9d8" stroke-width="2" d="M865.5,-612C865.5,-612 808.5,-612 808.5,-612 802.5,-612 796.5,-606 796.5,-600 796.5,-600 796.5,-588 796.5,-588 796.5,-582 802.5,-576 808.5,-576 808.5,-576 865.5,-576 865.5,-576 871.5,-576 877.5,-582 877.5,-588 877.5,-588 877.5,-600 877.5,-600 877.5,-606 871.5,-612 865.5,-612"/>
<text text-anchor="middle" x="837" y="-591.5" font-family="sans" font-size="10.00">align_stats_1</text>
</g>
<!-- 2&#45;&gt;6 -->
<g id="edge27" class="edge"><title>2&#45;&gt;6</title>
<path fill="none" stroke="grey" stroke-width="2" d="M649.556,-648.745C687.442,-639.439 735.503,-627.106 786.808,-611.947"/>
<polygon fill="grey" stroke="grey" stroke-width="2" points="787.838,-615.292 796.424,-609.084 785.841,-608.583 787.838,-615.292"/>
</g>
<!-- 22 -->
<g id="node23" class="node"><title>22</title>
<path fill="none" stroke="#d88556" stroke-width="2" d="M544,-612C544,-612 508,-612 508,-612 502,-612 496,-606 496,-600 496,-600 496,-588 496,-588 496,-582 502,-576 508,-576 508,-576 544,-576 544,-576 550,-576 556,-582 556,-588 556,-588 556,-600 556,-600 556,-606 550,-612 544,-612"/>
<text text-anchor="middle" x="526" y="-591.5" font-family="sans" font-size="10.00">markdup</text>
</g>
<!-- 2&#45;&gt;22 -->
<g id="edge45" class="edge"><title>2&#45;&gt;22</title>
<path fill="none" stroke="grey" stroke-width="2" d="M567.404,-647.697C560.877,-639.389 552.932,-629.277 545.753,-620.141"/>
<polygon fill="grey" stroke="grey" stroke-width="2" points="548.369,-617.805 539.439,-612.104 542.865,-622.13 548.369,-617.805"/>
</g>
<!-- 23 -->
<g id="node24" class="node"><title>23</title>
<path fill="none" stroke="#afd856" stroke-width="2" d="M672,-612C672,-612 642,-612 642,-612 636,-612 630,-606 630,-600 630,-600 630,-588 630,-588 630,-582 636,-576 642,-576 642,-576 672,-576 672,-576 678,-576 684,-582 684,-588 684,-588 684,-600 684,-600 684,-606 678,-612 672,-612"/>
<text text-anchor="middle" x="657" y="-591.5" font-family="sans" font-size="10.00">bb2bed</text>
</g>
<!-- 2&#45;&gt;23 -->
<g id="edge47" class="edge"><title>2&#45;&gt;23</title>
<path fill="none" stroke="grey" stroke-width="2" d="M599.787,-647.697C609.174,-639.05 620.684,-628.449 630.913,-619.027"/>
<polygon fill="grey" stroke="grey" stroke-width="2" points="633.445,-621.454 638.43,-612.104 628.703,-616.305 633.445,-621.454"/>
</g>
<!-- 3 -->
<g id="node4" class="node"><title>3</title>
<path fill="none" stroke="#569ad8" stroke-width="2" d="M804,-684C804,-684 680,-684 680,-684 674,-684 668,-678 668,-672 668,-672 668,-660 668,-660 668,-654 674,-648 680,-648 680,-648 804,-648 804,-648 810,-648 816,-654 816,-660 816,-660 816,-672 816,-672 816,-678 810,-684 804,-684"/>
<text text-anchor="middle" x="742" y="-663.5" font-family="sans" font-size="10.00">mapReads_paired_controls</text>
</g>
<!-- 3&#45;&gt;0 -->
<g id="edge19" class="edge"><title>3&#45;&gt;0</title>
<path fill="none" stroke="grey" stroke-width="2" d="M816.278,-655.97C892.496,-642.07 1000,-607.489 1000,-523 1000,-523 1000,-523 1000,-161 1000,-113.295 980.14,-97.7784 940,-72 893.709,-42.2716 731.667,-27.0485 657.533,-21.5066"/>
<polygon fill="grey" stroke="grey" stroke-width="2" points="657.485,-17.994 647.258,-20.7586 656.977,-24.9755 657.485,-17.994"/>
</g>
<!-- 3&#45;&gt;4 -->
<g id="edge23" class="edge"><title>3&#45;&gt;4</title>
<path fill="none" stroke="grey" stroke-width="2" d="M741.753,-647.697C741.643,-639.983 741.51,-630.712 741.387,-622.112"/>
<polygon fill="grey" stroke="grey" stroke-width="2" points="744.887,-622.053 741.244,-612.104 737.888,-622.153 744.887,-622.053"/>
</g>
<!-- 3&#45;&gt;6 -->
<g id="edge26" class="edge"><title>3&#45;&gt;6</title>
<path fill="none" stroke="grey" stroke-width="2" d="M765.483,-647.697C777.563,-638.796 792.454,-627.823 805.516,-618.199"/>
<polygon fill="grey" stroke="grey" stroke-width="2" points="807.813,-620.854 813.787,-612.104 803.66,-615.219 807.813,-620.854"/>
</g>
<!-- 3&#45;&gt;22 -->
<g id="edge44" class="edge"><title>3&#45;&gt;22</title>
<path fill="none" stroke="grey" stroke-width="2" d="M689.437,-647.966C651.362,-635.626 600.675,-619.2 565.899,-607.93"/>
<polygon fill="grey" stroke="grey" stroke-width="2" points="566.686,-604.506 556.094,-604.753 564.528,-611.165 566.686,-604.506"/>
</g>
<!-- 3&#45;&gt;23 -->
<g id="edge46" class="edge"><title>3&#45;&gt;23</title>
<path fill="none" stroke="grey" stroke-width="2" d="M720.989,-647.697C710.284,-638.881 697.11,-628.032 685.504,-618.474"/>
<polygon fill="grey" stroke="grey" stroke-width="2" points="687.714,-615.76 677.77,-612.104 683.264,-621.163 687.714,-615.76"/>
</g>
<!-- 4&#45;&gt;0 -->
<g id="edge14" class="edge"><title>4&#45;&gt;0</title>
<path fill="none" stroke="grey" stroke-width="2" d="M773.717,-575.808C826.354,-547.038 924,-488.6 924,-451 924,-451 924,-451 924,-161 924,-44.6247 738.861,-23.4065 657.544,-19.6996"/>
<polygon fill="grey" stroke="grey" stroke-width="2" points="657.374,-16.1904 647.246,-19.2991 657.102,-23.1851 657.374,-16.1904"/>
</g>
<!-- 5 -->
<g id="node6" class="node"><title>5</title>
<path fill="none" stroke="#56d873" stroke-width="2" d="M679,-540C679,-540 635,-540 635,-540 629,-540 623,-534 623,-528 623,-528 623,-516 623,-516 623,-510 629,-504 635,-504 635,-504 679,-504 679,-504 685,-504 691,-510 691,-516 691,-516 691,-528 691,-528 691,-534 685,-540 679,-540"/>
<text text-anchor="middle" x="657" y="-519.5" font-family="sans" font-size="10.00">call_peaks</text>
</g>
<!-- 5&#45;&gt;0 -->
<g id="edge10" class="edge"><title>5&#45;&gt;0</title>
<path fill="none" stroke="grey" stroke-width="2" d="M691.284,-515.927C755.167,-504.327 886,-469.519 886,-379 886,-379 886,-379 886,-161 886,-115.846 872.85,-99.4537 837,-72 784.012,-31.4222 704.201,-21.4494 657.576,-19.2712"/>
<polygon fill="grey" stroke="grey" stroke-width="2" points="657.435,-15.7637 647.313,-18.8933 657.177,-22.759 657.435,-15.7637"/>
</g>
<!-- 8 -->
<g id="node9" class="node"><title>8</title>
<path fill="none" stroke="#56d8c1" stroke-width="2" d="M696,-468C696,-468 618,-468 618,-468 612,-468 606,-462 606,-456 606,-456 606,-444 606,-444 606,-438 612,-432 618,-432 618,-432 696,-432 696,-432 702,-432 708,-438 708,-444 708,-444 708,-456 708,-456 708,-462 702,-468 696,-468"/>
<text text-anchor="middle" x="657" y="-447.5" font-family="sans" font-size="10.00">consensus_peaks</text>
</g>
<!-- 5&#45;&gt;8 -->
<g id="edge29" class="edge"><title>5&#45;&gt;8</title>
<path fill="none" stroke="grey" stroke-width="2" d="M657,-503.697C657,-495.983 657,-486.712 657,-478.112"/>
<polygon fill="grey" stroke="grey" stroke-width="2" points="660.5,-478.104 657,-468.104 653.5,-478.104 660.5,-478.104"/>
</g>
<!-- 5&#45;&gt;25 -->
<g id="edge49" class="edge"><title>5&#45;&gt;25</title>
<path fill="none" stroke="grey" stroke-width="2" d="M622.756,-504.572C568.153,-478.377 461.53,-427.227 402.614,-398.963"/>
<polygon fill="grey" stroke="grey" stroke-width="2" points="404.113,-395.801 393.583,-394.631 401.085,-402.112 404.113,-395.801"/>
</g>
<!-- 6&#45;&gt;0 -->
<g id="edge16" class="edge"><title>6&#45;&gt;0</title>
<path fill="none" stroke="grey" stroke-width="2" d="M867.899,-575.817C904.915,-552.693 962,-507.82 962,-451 962,-451 962,-451 962,-161 962,-114.027 943.966,-98.2318 905,-72 864.975,-45.0551 725.025,-28.7408 657.289,-22.2484"/>
<polygon fill="grey" stroke="grey" stroke-width="2" points="657.348,-18.7386 647.065,-21.2907 656.695,-25.7081 657.348,-18.7386"/>
</g>
<!-- 7 -->
<g id="node8" class="node"><title>7</title>
<path fill="none" stroke="#d8ac56" stroke-width="2" d="M156.5,-540C156.5,-540 99.5,-540 99.5,-540 93.5,-540 87.5,-534 87.5,-528 87.5,-528 87.5,-516 87.5,-516 87.5,-510 93.5,-504 99.5,-504 99.5,-504 156.5,-504 156.5,-504 162.5,-504 168.5,-510 168.5,-516 168.5,-516 168.5,-528 168.5,-528 168.5,-534 162.5,-540 156.5,-540"/>
<text text-anchor="middle" x="128" y="-519.5" font-family="sans" font-size="10.00">align_stats_2</text>
</g>
<!-- 7&#45;&gt;0 -->
<g id="edge5" class="edge"><title>7&#45;&gt;0</title>
<path fill="none" stroke="grey" stroke-width="2" d="M108.026,-503.955C81.5114,-479.31 38,-430.953 38,-379 38,-379 38,-379 38,-161 38,-114.962 52.1605,-96.7184 91,-72 172.681,-20.016 475.761,-17.6402 582.505,-18.4761"/>
<polygon fill="grey" stroke="grey" stroke-width="2" points="582.759,-21.9785 592.791,-18.5717 582.824,-14.9788 582.759,-21.9785"/>
</g>
<!-- 8&#45;&gt;0 -->
<g id="edge15" class="edge"><title>8&#45;&gt;0</title>
<path fill="none" stroke="grey" stroke-width="2" d="M708.184,-435.142C764.761,-416.347 848,-376.83 848,-307 848,-307 848,-307 848,-161 848,-117.449 840.094,-100.31 807,-72 764.422,-35.5777 698.406,-24.1064 657.269,-20.5417"/>
<polygon fill="grey" stroke="grey" stroke-width="2" points="657.358,-17.0386 647.124,-19.7793 656.834,-24.0189 657.358,-17.0386"/>
</g>
<!-- 8&#45;&gt;9 -->
<g id="edge30" class="edge"><title>8&#45;&gt;9</title>
<path fill="none" stroke="grey" stroke-width="2" d="M615.903,-431.876C592.834,-422.264 563.864,-410.193 539.43,-400.013"/>
<polygon fill="grey" stroke="grey" stroke-width="2" points="540.541,-396.684 529.964,-396.068 537.849,-403.145 540.541,-396.684"/>
</g>
<!-- 16 -->
<g id="node17" class="node"><title>16</title>
<path fill="none" stroke="#56b9d8" stroke-width="2" d="M769.5,-108C769.5,-108 698.5,-108 698.5,-108 692.5,-108 686.5,-102 686.5,-96 686.5,-96 686.5,-84 686.5,-84 686.5,-78 692.5,-72 698.5,-72 698.5,-72 769.5,-72 769.5,-72 775.5,-72 781.5,-78 781.5,-84 781.5,-84 781.5,-96 781.5,-96 781.5,-102 775.5,-108 769.5,-108"/>
<text text-anchor="middle" x="734" y="-87.5" font-family="sans" font-size="10.00">essential_report</text>
</g>
<!-- 8&#45;&gt;16 -->
<g id="edge36" class="edge"><title>8&#45;&gt;16</title>
<path fill="none" stroke="grey" stroke-width="2" d="M684.545,-431.819C718.567,-408.225 772,-362.357 772,-307 772,-307 772,-307 772,-233 772,-191.633 756.765,-145.722 745.588,-117.605"/>
<polygon fill="grey" stroke="grey" stroke-width="2" points="748.721,-116.019 741.69,-108.093 742.244,-118.673 748.721,-116.019"/>
</g>
<!-- 19 -->
<g id="node20" class="node"><title>19</title>
<path fill="none" stroke="#d87556" stroke-width="2" d="M530.5,-180C530.5,-180 421.5,-180 421.5,-180 415.5,-180 409.5,-174 409.5,-168 409.5,-168 409.5,-156 409.5,-156 409.5,-150 415.5,-144 421.5,-144 421.5,-144 530.5,-144 530.5,-144 536.5,-144 542.5,-150 542.5,-156 542.5,-156 542.5,-168 542.5,-168 542.5,-174 536.5,-180 530.5,-180"/>
<text text-anchor="middle" x="476" y="-159.5" font-family="sans" font-size="10.00">computeMatrix_merged</text>
</g>
<!-- 8&#45;&gt;19 -->
<g id="edge40" class="edge"><title>8&#45;&gt;19</title>
<path fill="none" stroke="grey" stroke-width="2" d="M646.22,-431.966C615.734,-383.795 528.76,-246.366 492.346,-188.829"/>
<polygon fill="grey" stroke="grey" stroke-width="2" points="495.258,-186.885 486.953,-180.306 489.343,-190.628 495.258,-186.885"/>
</g>
<!-- 9&#45;&gt;0 -->
<g id="edge3" class="edge"><title>9&#45;&gt;0</title>
<path fill="none" stroke="grey" stroke-width="2" d="M528.611,-359.926C573.339,-339.223 646.452,-300.94 697,-252 751.736,-199.005 768.454,-181.077 790,-108 794.525,-92.6532 799.482,-84.8879 790,-72 759.644,-30.7394 697.367,-20.6871 657.207,-18.7294"/>
<polygon fill="grey" stroke="grey" stroke-width="2" points="657.122,-15.2246 647.009,-18.382 656.884,-22.2206 657.122,-15.2246"/>
</g>
<!-- 24 -->
<g id="node25" class="node"><title>24</title>
<path fill="none" stroke="#d85656" stroke-width="2" d="M520,-324C520,-324 458,-324 458,-324 452,-324 446,-318 446,-312 446,-312 446,-300 446,-300 446,-294 452,-288 458,-288 458,-288 520,-288 520,-288 526,-288 532,-294 532,-300 532,-300 532,-312 532,-312 532,-318 526,-324 520,-324"/>
<text text-anchor="middle" x="489" y="-303.5" font-family="sans" font-size="10.00">merge_counts</text>
</g>
<!-- 9&#45;&gt;24 -->
<g id="edge48" class="edge"><title>9&#45;&gt;24</title>
<path fill="none" stroke="grey" stroke-width="2" d="M489,-359.697C489,-351.983 489,-342.712 489,-334.112"/>
<polygon fill="grey" stroke="grey" stroke-width="2" points="492.5,-334.104 489,-324.104 485.5,-334.104 492.5,-334.104"/>
</g>
<!-- 10 -->
<g id="node11" class="node"><title>10</title>
<path fill="none" stroke="#56a9d8" stroke-width="2" d="M333.5,-180C333.5,-180 276.5,-180 276.5,-180 270.5,-180 264.5,-174 264.5,-168 264.5,-168 264.5,-156 264.5,-156 264.5,-150 270.5,-144 276.5,-144 276.5,-144 333.5,-144 333.5,-144 339.5,-144 345.5,-150 345.5,-156 345.5,-156 345.5,-168 345.5,-168 345.5,-174 339.5,-180 333.5,-180"/>
<text text-anchor="middle" x="305" y="-159.5" font-family="sans" font-size="10.00">deseq2_plots</text>
</g>
<!-- 10&#45;&gt;0 -->
<g id="edge18" class="edge"><title>10&#45;&gt;0</title>
<path fill="none" stroke="grey" stroke-width="2" d="M280.663,-143.969C256.913,-125.311 227.053,-94.9815 247,-72 290.266,-22.1514 497.16,-17.9607 582.779,-18.4191"/>
<polygon fill="grey" stroke="grey" stroke-width="2" points="582.811,-21.9193 592.838,-18.4977 582.866,-14.9196 582.811,-21.9193"/>
</g>
<!-- 11 -->
<g id="node12" class="node"><title>11</title>
<path fill="none" stroke="#80d856" stroke-width="2" d="M676,-252C676,-252 602,-252 602,-252 596,-252 590,-246 590,-240 590,-240 590,-228 590,-228 590,-222 596,-216 602,-216 602,-216 676,-216 676,-216 682,-216 688,-222 688,-228 688,-228 688,-240 688,-240 688,-246 682,-252 676,-252"/>
<text text-anchor="middle" x="639" y="-231.5" font-family="sans" font-size="10.00">deseq2_pairwise</text>
</g>
<!-- 11&#45;&gt;0 -->
<g id="edge8" class="edge"><title>11&#45;&gt;0</title>
<path fill="none" stroke="grey" stroke-width="2" d="M637.477,-215.849C634.191,-178.832 626.409,-91.1809 622.431,-46.3863"/>
<polygon fill="grey" stroke="grey" stroke-width="2" points="625.901,-45.8837 621.53,-36.2325 618.928,-46.5028 625.901,-45.8837"/>
</g>
<!-- 12 -->
<g id="node13" class="node"><title>12</title>
<path fill="none" stroke="#9fd856" stroke-width="2" d="M694,-180C694,-180 660,-180 660,-180 654,-180 648,-174 648,-168 648,-168 648,-156 648,-156 648,-150 654,-144 660,-144 660,-144 694,-144 694,-144 700,-144 706,-150 706,-156 706,-156 706,-168 706,-168 706,-174 700,-180 694,-180"/>
<text text-anchor="middle" x="677" y="-159.5" font-family="sans" font-size="10.00">de_stats</text>
</g>
<!-- 11&#45;&gt;12 -->
<g id="edge34" class="edge"><title>11&#45;&gt;12</title>
<path fill="none" stroke="grey" stroke-width="2" d="M648.393,-215.697C652.765,-207.644 658.057,-197.894 662.895,-188.982"/>
<polygon fill="grey" stroke="grey" stroke-width="2" points="666.02,-190.563 667.715,-180.104 659.868,-187.223 666.02,-190.563"/>
</g>
<!-- 12&#45;&gt;0 -->
<g id="edge7" class="edge"><title>12&#45;&gt;0</title>
<path fill="none" stroke="grey" stroke-width="2" d="M670.124,-143.871C660.324,-119.457 642.248,-74.4258 630.692,-45.6351"/>
<polygon fill="grey" stroke="grey" stroke-width="2" points="633.873,-44.1657 626.9,-36.1893 627.377,-46.7734 633.873,-44.1657"/>
</g>
<!-- 12&#45;&gt;16 -->
<g id="edge37" class="edge"><title>12&#45;&gt;16</title>
<path fill="none" stroke="grey" stroke-width="2" d="M691.09,-143.697C697.923,-135.305 706.257,-125.07 713.756,-115.861"/>
<polygon fill="grey" stroke="grey" stroke-width="2" points="716.472,-118.069 720.072,-108.104 711.044,-113.649 716.472,-118.069"/>
</g>
<!-- 13 -->
<g id="node14" class="node"><title>13</title>
<path fill="none" stroke="#56d882" stroke-width="2" d="M1128,-108C1128,-108 1040,-108 1040,-108 1034,-108 1028,-102 1028,-96 1028,-96 1028,-84 1028,-84 1028,-78 1034,-72 1040,-72 1040,-72 1128,-72 1128,-72 1134,-72 1140,-78 1140,-84 1140,-84 1140,-96 1140,-96 1140,-102 1134,-108 1128,-108"/>
<text text-anchor="middle" x="1084" y="-87.5" font-family="sans" font-size="10.00">fastq_screen_cases</text>
</g>
<!-- 13&#45;&gt;0 -->
<g id="edge11" class="edge"><title>13&#45;&gt;0</title>
<path fill="none" stroke="grey" stroke-width="2" d="M1027.95,-74.8412C1023.24,-73.819 1018.55,-72.8556 1014,-72 883.999,-47.5397 727.812,-29.9977 657.516,-22.7253"/>
<polygon fill="grey" stroke="grey" stroke-width="2" points="657.689,-19.2248 647.385,-21.687 656.976,-26.1883 657.689,-19.2248"/>
</g>
<!-- 14 -->
<g id="node15" class="node"><title>14</title>
<path fill="none" stroke="#d8bc56" stroke-width="2" d="M1269.5,-108C1269.5,-108 1170.5,-108 1170.5,-108 1164.5,-108 1158.5,-102 1158.5,-96 1158.5,-96 1158.5,-84 1158.5,-84 1158.5,-78 1164.5,-72 1170.5,-72 1170.5,-72 1269.5,-72 1269.5,-72 1275.5,-72 1281.5,-78 1281.5,-84 1281.5,-84 1281.5,-96 1281.5,-96 1281.5,-102 1275.5,-108 1269.5,-108"/>
<text text-anchor="middle" x="1220" y="-87.5" font-family="sans" font-size="10.00">fastq_screen_controls</text>
</g>
<!-- 14&#45;&gt;0 -->
<g id="edge4" class="edge"><title>14&#45;&gt;0</title>
<path fill="none" stroke="grey" stroke-width="2" d="M1158.15,-73.6693C1155.06,-73.0683 1152,-72.5069 1149,-72 965.97,-41.0649 744.038,-26.0253 657.285,-20.9982"/>
<polygon fill="grey" stroke="grey" stroke-width="2" points="657.331,-17.4952 647.148,-20.421 656.933,-24.4839 657.331,-17.4952"/>
</g>
<!-- 15 -->
<g id="node16" class="node"><title>15</title>
<path fill="none" stroke="#56d892" stroke-width="2" d="M296.5,-252C296.5,-252 263.5,-252 263.5,-252 257.5,-252 251.5,-246 251.5,-240 251.5,-240 251.5,-228 251.5,-228 251.5,-222 257.5,-216 263.5,-216 263.5,-216 296.5,-216 296.5,-216 302.5,-216 308.5,-222 308.5,-228 308.5,-228 308.5,-240 308.5,-240 308.5,-246 302.5,-252 296.5,-252"/>
<text text-anchor="middle" x="280" y="-231.5" font-family="sans" font-size="10.00">frip_plot</text>
</g>
<!-- 15&#45;&gt;0 -->
<g id="edge12" class="edge"><title>15&#45;&gt;0</title>
<path fill="none" stroke="grey" stroke-width="2" d="M266.44,-215.697C242.944,-183.504 200.513,-113.884 237,-72 281.655,-20.7397 495.414,-17.4162 582.726,-18.2628"/>
<polygon fill="grey" stroke="grey" stroke-width="2" points="582.928,-21.7654 592.97,-18.3873 583.013,-14.766 582.928,-21.7654"/>
</g>
<!-- 16&#45;&gt;0 -->
<g id="edge17" class="edge"><title>16&#45;&gt;0</title>
<path fill="none" stroke="grey" stroke-width="2" d="M706.112,-71.8761C690.984,-62.587 672.117,-51.0015 655.901,-41.0447"/>
<polygon fill="grey" stroke="grey" stroke-width="2" points="657.559,-37.9557 647.206,-35.7056 653.897,-43.9209 657.559,-37.9557"/>
</g>
<!-- 17&#45;&gt;0 -->
<g id="edge6" class="edge"><title>17&#45;&gt;0</title>
<path fill="none" stroke="grey" stroke-width="2" d="M118.961,-287.837C109.824,-278.3 99.8317,-265.624 95,-252 76.7515,-200.544 74.9088,-112.173 117,-72 150.576,-39.9543 471.791,-24.6899 582.622,-20.3461"/>
<polygon fill="grey" stroke="grey" stroke-width="2" points="582.816,-23.8413 592.674,-19.9596 582.547,-16.8465 582.816,-23.8413"/>
</g>
<!-- 18 -->
<g id="node19" class="node"><title>18</title>
<path fill="none" stroke="#567bd8" stroke-width="2" d="M166,-252C166,-252 116,-252 116,-252 110,-252 104,-246 104,-240 104,-240 104,-228 104,-228 104,-222 110,-216 116,-216 116,-216 166,-216 166,-216 172,-216 178,-222 178,-228 178,-228 178,-240 178,-240 178,-246 172,-252 166,-252"/>
<text text-anchor="middle" x="141" y="-231.5" font-family="sans" font-size="10.00">merged_bw</text>
</g>
<!-- 17&#45;&gt;18 -->
<g id="edge39" class="edge"><title>17&#45;&gt;18</title>
<path fill="none" stroke="grey" stroke-width="2" d="M138.742,-287.697C139.072,-279.983 139.469,-270.712 139.838,-262.112"/>
<polygon fill="grey" stroke="grey" stroke-width="2" points="143.335,-262.245 140.267,-252.104 136.342,-261.945 143.335,-262.245"/>
</g>
<!-- 18&#45;&gt;0 -->
<g id="edge21" class="edge"><title>18&#45;&gt;0</title>
<path fill="none" stroke="grey" stroke-width="2" d="M134.002,-215.848C121.983,-183.286 101.993,-112.183 138,-72 167.598,-38.9695 475.078,-24.4051 582.894,-20.2871"/>
<polygon fill="grey" stroke="grey" stroke-width="2" points="583.12,-23.7812 592.982,-19.9102 582.859,-16.7861 583.12,-23.7812"/>
</g>
<!-- 18&#45;&gt;19 -->
<g id="edge41" class="edge"><title>18&#45;&gt;19</title>
<path fill="none" stroke="grey" stroke-width="2" d="M178.131,-225.241C231.225,-214.147 330.057,-193.496 399.267,-179.034"/>
<polygon fill="grey" stroke="grey" stroke-width="2" points="400.182,-182.418 409.254,-176.947 398.75,-175.566 400.182,-182.418"/>
</g>
<!-- 19&#45;&gt;0 -->
<g id="edge2" class="edge"><title>19&#45;&gt;0</title>
<path fill="none" stroke="grey" stroke-width="2" d="M512.008,-143.887C528.761,-134.78 548.204,-122.467 563,-108 581.743,-89.6738 597.318,-64.0845 607.424,-45.0459"/>
<polygon fill="grey" stroke="grey" stroke-width="2" points="610.603,-46.5171 612.067,-36.0238 604.379,-43.3141 610.603,-46.5171"/>
</g>
<!-- 20 -->
<g id="node21" class="node"><title>20</title>
<path fill="none" stroke="#568ad8" stroke-width="2" d="M367.5,-108C367.5,-108 268.5,-108 268.5,-108 262.5,-108 256.5,-102 256.5,-96 256.5,-96 256.5,-84 256.5,-84 256.5,-78 262.5,-72 268.5,-72 268.5,-72 367.5,-72 367.5,-72 373.5,-72 379.5,-78 379.5,-84 379.5,-84 379.5,-96 379.5,-96 379.5,-102 373.5,-108 367.5,-108"/>
<text text-anchor="middle" x="318" y="-87.5" font-family="sans" font-size="10.00">plotHeatmap_merged</text>
</g>
<!-- 19&#45;&gt;20 -->
<g id="edge42" class="edge"><title>19&#45;&gt;20</title>
<path fill="none" stroke="grey" stroke-width="2" d="M437.349,-143.876C415.749,-134.307 388.649,-122.3 365.734,-112.148"/>
<polygon fill="grey" stroke="grey" stroke-width="2" points="367.086,-108.919 356.526,-108.068 364.251,-115.319 367.086,-108.919"/>
</g>
<!-- 21 -->
<g id="node22" class="node"><title>21</title>
<path fill="none" stroke="#56d8a2" stroke-width="2" d="M542,-108C542,-108 410,-108 410,-108 404,-108 398,-102 398,-96 398,-96 398,-84 398,-84 398,-78 404,-72 410,-72 410,-72 542,-72 542,-72 548,-72 554,-78 554,-84 554,-84 554,-96 554,-96 554,-102 548,-108 542,-108"/>
<text text-anchor="middle" x="476" y="-87.5" font-family="sans" font-size="10.00">plotHeatmap_merged_plotly</text>
</g>
<!-- 19&#45;&gt;21 -->
<g id="edge43" class="edge"><title>19&#45;&gt;21</title>
<path fill="none" stroke="grey" stroke-width="2" d="M476,-143.697C476,-135.983 476,-126.712 476,-118.112"/>
<polygon fill="grey" stroke="grey" stroke-width="2" points="479.5,-118.104 476,-108.104 472.5,-118.104 479.5,-118.104"/>
</g>
<!-- 20&#45;&gt;0 -->
<g id="edge20" class="edge"><title>20&#45;&gt;0</title>
<path fill="none" stroke="grey" stroke-width="2" d="M379.565,-74.2213C382.755,-73.4673 385.915,-72.7232 389,-72 457.384,-55.9687 537.28,-37.7514 582.93,-27.3915"/>
<polygon fill="grey" stroke="grey" stroke-width="2" points="583.975,-30.7435 592.953,-25.1183 582.426,-23.9169 583.975,-30.7435"/>
</g>
<!-- 21&#45;&gt;0 -->
<g id="edge13" class="edge"><title>21&#45;&gt;0</title>
<path fill="none" stroke="grey" stroke-width="2" d="M511.226,-71.8761C533.229,-61.1805 561.494,-47.4404 583.697,-36.6474"/>
<polygon fill="grey" stroke="grey" stroke-width="2" points="585.341,-39.7396 592.805,-32.2198 582.281,-33.444 585.341,-39.7396"/>
</g>
<!-- 22&#45;&gt;1 -->
<g id="edge22" class="edge"><title>22&#45;&gt;1</title>
<path fill="none" stroke="grey" stroke-width="2" d="M506.097,-575.871C476.861,-550.711 422.182,-503.654 388.936,-475.042"/>
<polygon fill="grey" stroke="grey" stroke-width="2" points="390.836,-472.059 380.973,-468.189 386.27,-477.365 390.836,-472.059"/>
</g>
<!-- 22&#45;&gt;7 -->
<g id="edge28" class="edge"><title>22&#45;&gt;7</title>
<path fill="none" stroke="grey" stroke-width="2" d="M495.759,-587.681C427.843,-575.736 262.616,-546.676 178.703,-531.918"/>
<polygon fill="grey" stroke="grey" stroke-width="2" points="179.095,-528.433 168.64,-530.148 177.883,-535.327 179.095,-528.433"/>
</g>
<!-- 23&#45;&gt;5 -->
<g id="edge25" class="edge"><title>23&#45;&gt;5</title>
<path fill="none" stroke="grey" stroke-width="2" d="M657,-575.697C657,-567.983 657,-558.712 657,-550.112"/>
<polygon fill="grey" stroke="grey" stroke-width="2" points="660.5,-550.104 657,-540.104 653.5,-550.104 660.5,-550.104"/>
</g>
<!-- 24&#45;&gt;10 -->
<g id="edge32" class="edge"><title>24&#45;&gt;10</title>
<path fill="none" stroke="grey" stroke-width="2" d="M466.805,-287.871C433.926,-262.497 372.192,-214.854 335.215,-186.318"/>
<polygon fill="grey" stroke="grey" stroke-width="2" points="337.328,-183.528 327.273,-180.189 333.052,-189.07 337.328,-183.528"/>
</g>
<!-- 24&#45;&gt;11 -->
<g id="edge33" class="edge"><title>24&#45;&gt;11</title>
<path fill="none" stroke="grey" stroke-width="2" d="M525.694,-287.876C546.018,-278.392 571.471,-266.513 593.102,-256.419"/>
<polygon fill="grey" stroke="grey" stroke-width="2" points="594.843,-259.469 602.425,-252.068 591.883,-253.126 594.843,-259.469"/>
</g>
<!-- 25&#45;&gt;15 -->
<g id="edge35" class="edge"><title>25&#45;&gt;15</title>
<path fill="none" stroke="grey" stroke-width="2" d="M351.23,-359.871C337.181,-335.244 311.167,-289.638 294.765,-260.885"/>
<polygon fill="grey" stroke="grey" stroke-width="2" points="297.8,-259.141 289.805,-252.189 291.72,-262.61 297.8,-259.141"/>
</g>
</g>
</svg>
