<?xml version="1.0" encoding="UTF-8" standalone="no"?>
<!DOCTYPE svg PUBLIC "-//W3C//DTD SVG 1.1//EN"
 "http://www.w3.org/Graphics/SVG/1.1/DTD/svg11.dtd">
<!-- Generated by graphviz version 2.38.0 (20140413.2041)
 -->
<!-- Title: snakemake_dag Pages: 1 -->
<svg width="834pt" height="692pt"
 viewBox="0.00 0.00 833.50 692.00" xmlns="http://www.w3.org/2000/svg" xmlns:xlink="http://www.w3.org/1999/xlink">
<g id="graph0" class="graph" transform="scale(1 1) rotate(0) translate(4 688)">
<title>snakemake_dag</title>
<polygon fill="white" stroke="none" points="-4,4 -4,-688 829.5,-688 829.5,4 -4,4"/>
<!-- 0 -->
<g id="node1" class="node"><title>0</title>
<path fill="none" stroke="#70d856" stroke-width="2" d="M338,-36C338,-36 308,-36 308,-36 302,-36 296,-30 296,-24 296,-24 296,-12 296,-12 296,-6 302,-0 308,-0 308,-0 338,-0 338,-0 344,-0 350,-6 350,-12 350,-12 350,-24 350,-24 350,-30 344,-36 338,-36"/>
<text text-anchor="middle" x="323" y="-15.5" font-family="sans" font-size="10.00">all</text>
</g>
<!-- 1 -->
<g id="node2" class="node"><title>1</title>
<path fill="none" stroke="#d85656" stroke-width="2" d="M324.5,-468C324.5,-468 261.5,-468 261.5,-468 255.5,-468 249.5,-462 249.5,-456 249.5,-456 249.5,-444 249.5,-444 249.5,-438 255.5,-432 261.5,-432 261.5,-432 324.5,-432 324.5,-432 330.5,-432 336.5,-438 336.5,-444 336.5,-444 336.5,-456 336.5,-456 336.5,-462 330.5,-468 324.5,-468"/>
<text text-anchor="middle" x="293" y="-447.5" font-family="sans" font-size="10.00">rm_unmapped</text>
</g>
<!-- 1&#45;&gt;0 -->
<g id="edge1" class="edge"><title>1&#45;&gt;0</title>
<path fill="none" stroke="grey" stroke-width="2" d="M317.261,-431.926C328.379,-422.67 340.504,-410.218 347,-396 406.848,-265.014 390.477,-210.494 351,-72 348.388,-62.8381 344.064,-53.4512 339.586,-45.1718"/>
<polygon fill="grey" stroke="grey" stroke-width="2" points="342.551,-43.3073 334.547,-36.3657 336.476,-46.7836 342.551,-43.3073"/>
</g>
<!-- 8 -->
<g id="node9" class="node"><title>8</title>
<path fill="none" stroke="#80d856" stroke-width="2" d="M326,-396C326,-396 260,-396 260,-396 254,-396 248,-390 248,-384 248,-384 248,-372 248,-372 248,-366 254,-360 260,-360 260,-360 326,-360 326,-360 332,-360 338,-366 338,-372 338,-372 338,-384 338,-384 338,-390 332,-396 326,-396"/>
<text text-anchor="middle" x="293" y="-375.5" font-family="sans" font-size="10.00">sample_counts</text>
</g>
<!-- 1&#45;&gt;8 -->
<g id="edge22" class="edge"><title>1&#45;&gt;8</title>
<path fill="none" stroke="grey" stroke-width="2" d="M293,-431.697C293,-423.983 293,-414.712 293,-406.112"/>
<polygon fill="grey" stroke="grey" stroke-width="2" points="296.5,-406.104 293,-396.104 289.5,-406.104 296.5,-406.104"/>
</g>
<!-- 20 -->
<g id="node21" class="node"><title>20</title>
<path fill="none" stroke="#56b9d8" stroke-width="2" d="M217.5,-396C217.5,-396 176.5,-396 176.5,-396 170.5,-396 164.5,-390 164.5,-384 164.5,-384 164.5,-372 164.5,-372 164.5,-366 170.5,-360 176.5,-360 176.5,-360 217.5,-360 217.5,-360 223.5,-360 229.5,-366 229.5,-372 229.5,-372 229.5,-384 229.5,-384 229.5,-390 223.5,-396 217.5,-396"/>
<text text-anchor="middle" x="197" y="-375.5" font-family="sans" font-size="10.00">frip_count</text>
</g>
<!-- 1&#45;&gt;20 -->
<g id="edge39" class="edge"><title>1&#45;&gt;20</title>
<path fill="none" stroke="grey" stroke-width="2" d="M269.27,-431.697C257.063,-422.796 242.015,-411.823 228.816,-402.199"/>
<polygon fill="grey" stroke="grey" stroke-width="2" points="230.6,-399.168 220.457,-396.104 226.475,-404.824 230.6,-399.168"/>
</g>
<!-- 2 -->
<g id="node3" class="node"><title>2</title>
<path fill="none" stroke="#9fd856" stroke-width="2" d="M313.5,-684C313.5,-684 200.5,-684 200.5,-684 194.5,-684 188.5,-678 188.5,-672 188.5,-672 188.5,-660 188.5,-660 188.5,-654 194.5,-648 200.5,-648 200.5,-648 313.5,-648 313.5,-648 319.5,-648 325.5,-654 325.5,-660 325.5,-660 325.5,-672 325.5,-672 325.5,-678 319.5,-684 313.5,-684"/>
<text text-anchor="middle" x="257" y="-663.5" font-family="sans" font-size="10.00">mapReads_paired_cases</text>
</g>
<!-- 2&#45;&gt;0 -->
<g id="edge11" class="edge"><title>2&#45;&gt;0</title>
<path fill="none" stroke="grey" stroke-width="2" d="M188.466,-656.855C112.334,-643.54 0,-609.277 0,-523 0,-523 0,-523 0,-161 0,-116.473 10.3228,-98.6412 46,-72 83.4256,-44.0532 218.925,-28.3243 285.525,-22.1246"/>
<polygon fill="grey" stroke="grey" stroke-width="2" points="285.954,-25.6002 295.596,-21.211 285.321,-18.6288 285.954,-25.6002"/>
</g>
<!-- 4 -->
<g id="node5" class="node"><title>4</title>
<path fill="none" stroke="#5663d8" stroke-width="2" d="M503.5,-612C503.5,-612 452.5,-612 452.5,-612 446.5,-612 440.5,-606 440.5,-600 440.5,-600 440.5,-588 440.5,-588 440.5,-582 446.5,-576 452.5,-576 452.5,-576 503.5,-576 503.5,-576 509.5,-576 515.5,-582 515.5,-588 515.5,-588 515.5,-600 515.5,-600 515.5,-606 509.5,-612 503.5,-612"/>
<text text-anchor="middle" x="478" y="-591.5" font-family="sans" font-size="10.00">makeTracks</text>
</g>
<!-- 2&#45;&gt;4 -->
<g id="edge17" class="edge"><title>2&#45;&gt;4</title>
<path fill="none" stroke="grey" stroke-width="2" d="M315.634,-647.958C347.174,-638.6 386.921,-626.507 430.659,-612.035"/>
<polygon fill="grey" stroke="grey" stroke-width="2" points="431.966,-615.289 440.349,-608.811 429.756,-608.647 431.966,-615.289"/>
</g>
<!-- 15 -->
<g id="node16" class="node"><title>15</title>
<path fill="none" stroke="#d8bc56" stroke-width="2" d="M311,-612C311,-612 275,-612 275,-612 269,-612 263,-606 263,-600 263,-600 263,-588 263,-588 263,-582 269,-576 275,-576 275,-576 311,-576 311,-576 317,-576 323,-582 323,-588 323,-588 323,-600 323,-600 323,-606 317,-612 311,-612"/>
<text text-anchor="middle" x="293" y="-591.5" font-family="sans" font-size="10.00">markdup</text>
</g>
<!-- 2&#45;&gt;15 -->
<g id="edge31" class="edge"><title>2&#45;&gt;15</title>
<path fill="none" stroke="grey" stroke-width="2" d="M265.899,-647.697C269.997,-639.728 274.949,-630.1 279.493,-621.264"/>
<polygon fill="grey" stroke="grey" stroke-width="2" points="282.742,-622.598 284.203,-612.104 276.517,-619.396 282.742,-622.598"/>
</g>
<!-- 16 -->
<g id="node17" class="node"><title>16</title>
<path fill="none" stroke="#56d85b" stroke-width="2" d="M233,-612C233,-612 203,-612 203,-612 197,-612 191,-606 191,-600 191,-600 191,-588 191,-588 191,-582 197,-576 203,-576 203,-576 233,-576 233,-576 239,-576 245,-582 245,-588 245,-588 245,-600 245,-600 245,-606 239,-612 233,-612"/>
<text text-anchor="middle" x="218" y="-591.5" font-family="sans" font-size="10.00">bb2bed</text>
</g>
<!-- 2&#45;&gt;16 -->
<g id="edge33" class="edge"><title>2&#45;&gt;16</title>
<path fill="none" stroke="grey" stroke-width="2" d="M247.36,-647.697C242.873,-639.644 237.441,-629.894 232.476,-620.982"/>
<polygon fill="grey" stroke="grey" stroke-width="2" points="235.454,-619.137 227.53,-612.104 229.339,-622.544 235.454,-619.137"/>
</g>
<!-- 17 -->
<g id="node18" class="node"><title>17</title>
<path fill="none" stroke="#56c9d8" stroke-width="2" d="M410.5,-612C410.5,-612 353.5,-612 353.5,-612 347.5,-612 341.5,-606 341.5,-600 341.5,-600 341.5,-588 341.5,-588 341.5,-582 347.5,-576 353.5,-576 353.5,-576 410.5,-576 410.5,-576 416.5,-576 422.5,-582 422.5,-588 422.5,-588 422.5,-600 422.5,-600 422.5,-606 416.5,-612 410.5,-612"/>
<text text-anchor="middle" x="382" y="-591.5" font-family="sans" font-size="10.00">align_stats_1</text>
</g>
<!-- 2&#45;&gt;17 -->
<g id="edge35" class="edge"><title>2&#45;&gt;17</title>
<path fill="none" stroke="grey" stroke-width="2" d="M287.578,-647.876C304.074,-638.639 324.624,-627.131 342.336,-617.212"/>
<polygon fill="grey" stroke="grey" stroke-width="2" points="344.289,-620.13 351.304,-612.19 340.869,-614.022 344.289,-620.13"/>
</g>
<!-- 3 -->
<g id="node4" class="node"><title>3</title>
<path fill="none" stroke="#56a9d8" stroke-width="2" d="M480,-684C480,-684 356,-684 356,-684 350,-684 344,-678 344,-672 344,-672 344,-660 344,-660 344,-654 350,-648 356,-648 356,-648 480,-648 480,-648 486,-648 492,-654 492,-660 492,-660 492,-672 492,-672 492,-678 486,-684 480,-684"/>
<text text-anchor="middle" x="418" y="-663.5" font-family="sans" font-size="10.00">mapReads_paired_controls</text>
</g>
<!-- 3&#45;&gt;0 -->
<g id="edge8" class="edge"><title>3&#45;&gt;0</title>
<path fill="none" stroke="grey" stroke-width="2" d="M473.986,-647.993C492.37,-639.834 511.319,-628.202 524,-612 548.988,-580.074 544,-563.542 544,-523 544,-523 544,-523 544,-161 544,-114.027 524.198,-100.683 487,-72 449.474,-43.0636 395.615,-29.6459 359.992,-23.6202"/>
<polygon fill="grey" stroke="grey" stroke-width="2" points="360.433,-20.1465 350.009,-22.044 359.341,-27.0608 360.433,-20.1465"/>
</g>
<!-- 3&#45;&gt;4 -->
<g id="edge16" class="edge"><title>3&#45;&gt;4</title>
<path fill="none" stroke="grey" stroke-width="2" d="M432.831,-647.697C440.025,-639.305 448.797,-629.07 456.69,-619.861"/>
<polygon fill="grey" stroke="grey" stroke-width="2" points="459.489,-621.975 463.339,-612.104 454.174,-617.419 459.489,-621.975"/>
</g>
<!-- 3&#45;&gt;15 -->
<g id="edge30" class="edge"><title>3&#45;&gt;15</title>
<path fill="none" stroke="grey" stroke-width="2" d="M387.422,-647.876C370.803,-638.57 350.069,-626.959 332.267,-616.99"/>
<polygon fill="grey" stroke="grey" stroke-width="2" points="333.698,-613.779 323.263,-611.947 330.278,-619.887 333.698,-613.779"/>
</g>
<!-- 3&#45;&gt;16 -->
<g id="edge32" class="edge"><title>3&#45;&gt;16</title>
<path fill="none" stroke="grey" stroke-width="2" d="M358.908,-647.916C329.755,-639.022 293.997,-627.422 254.839,-612.116"/>
<polygon fill="grey" stroke="grey" stroke-width="2" points="255.944,-608.789 245.357,-608.363 253.367,-615.298 255.944,-608.789"/>
</g>
<!-- 3&#45;&gt;17 -->
<g id="edge34" class="edge"><title>3&#45;&gt;17</title>
<path fill="none" stroke="grey" stroke-width="2" d="M409.101,-647.697C405.003,-639.728 400.051,-630.1 395.507,-621.264"/>
<polygon fill="grey" stroke="grey" stroke-width="2" points="398.483,-619.396 390.797,-612.104 392.258,-622.598 398.483,-619.396"/>
</g>
<!-- 4&#45;&gt;0 -->
<g id="edge14" class="edge"><title>4&#45;&gt;0</title>
<path fill="none" stroke="grey" stroke-width="2" d="M483.666,-575.728C491.848,-549.21 506,-496.732 506,-451 506,-451 506,-451 506,-161 506,-115.188 488.645,-101.974 454,-72 426.983,-48.6253 388.316,-34.6942 359.994,-27.0262"/>
<polygon fill="grey" stroke="grey" stroke-width="2" points="360.624,-23.5747 350.068,-24.4787 358.884,-30.3549 360.624,-23.5747"/>
</g>
<!-- 5 -->
<g id="node6" class="node"><title>5</title>
<path fill="none" stroke="#c6d856" stroke-width="2" d="M185,-540C185,-540 141,-540 141,-540 135,-540 129,-534 129,-528 129,-528 129,-516 129,-516 129,-510 135,-504 141,-504 141,-504 185,-504 185,-504 191,-504 197,-510 197,-516 197,-516 197,-528 197,-528 197,-534 191,-540 185,-540"/>
<text text-anchor="middle" x="163" y="-519.5" font-family="sans" font-size="10.00">call_peaks</text>
</g>
<!-- 5&#45;&gt;0 -->
<g id="edge5" class="edge"><title>5&#45;&gt;0</title>
<path fill="none" stroke="grey" stroke-width="2" d="M128.739,-510.693C106.949,-502.459 79.7745,-488.801 63,-468 37.2086,-436.017 38,-420.086 38,-379 38,-379 38,-379 38,-161 38,-116.676 47.9843,-99.1761 83,-72 114.323,-47.6898 226.647,-30.7446 285.861,-23.2825"/>
<polygon fill="grey" stroke="grey" stroke-width="2" points="286.427,-26.7393 295.923,-22.0415 285.57,-19.792 286.427,-26.7393"/>
</g>
<!-- 7 -->
<g id="node8" class="node"><title>7</title>
<path fill="none" stroke="#d6d856" stroke-width="2" d="M162,-468C162,-468 84,-468 84,-468 78,-468 72,-462 72,-456 72,-456 72,-444 72,-444 72,-438 78,-432 84,-432 84,-432 162,-432 162,-432 168,-432 174,-438 174,-444 174,-444 174,-456 174,-456 174,-462 168,-468 162,-468"/>
<text text-anchor="middle" x="123" y="-447.5" font-family="sans" font-size="10.00">consensus_peaks</text>
</g>
<!-- 5&#45;&gt;7 -->
<g id="edge21" class="edge"><title>5&#45;&gt;7</title>
<path fill="none" stroke="grey" stroke-width="2" d="M153.112,-503.697C148.511,-495.644 142.94,-485.894 137.847,-476.982"/>
<polygon fill="grey" stroke="grey" stroke-width="2" points="140.774,-475.05 132.774,-468.104 134.696,-478.523 140.774,-475.05"/>
</g>
<!-- 5&#45;&gt;20 -->
<g id="edge38" class="edge"><title>5&#45;&gt;20</title>
<path fill="none" stroke="grey" stroke-width="2" d="M170.587,-503.628C174.783,-493.42 179.783,-480.17 183,-468 188.388,-447.617 191.983,-424.025 194.18,-406.254"/>
<polygon fill="grey" stroke="grey" stroke-width="2" points="197.662,-406.616 195.343,-396.278 190.709,-405.805 197.662,-406.616"/>
</g>
<!-- 6 -->
<g id="node7" class="node"><title>6</title>
<path fill="none" stroke="#d86656" stroke-width="2" d="M466,-252C466,-252 420,-252 420,-252 414,-252 408,-246 408,-240 408,-240 408,-228 408,-228 408,-222 414,-216 420,-216 420,-216 466,-216 466,-216 472,-216 478,-222 478,-228 478,-228 478,-240 478,-240 478,-246 472,-252 466,-252"/>
<text text-anchor="middle" x="443" y="-231.5" font-family="sans" font-size="10.00">align_stats</text>
</g>
<!-- 6&#45;&gt;0 -->
<g id="edge3" class="edge"><title>6&#45;&gt;0</title>
<path fill="none" stroke="grey" stroke-width="2" d="M447.018,-215.714C453.314,-184.153 461.915,-116.369 432,-72 415.561,-47.6186 384.589,-34.0626 359.849,-26.7786"/>
<polygon fill="grey" stroke="grey" stroke-width="2" points="360.6,-23.3558 350.033,-24.1131 358.766,-30.1112 360.6,-23.3558"/>
</g>
<!-- 14 -->
<g id="node15" class="node"><title>14</title>
<path fill="none" stroke="#567bd8" stroke-width="2" d="M225.5,-108C225.5,-108 154.5,-108 154.5,-108 148.5,-108 142.5,-102 142.5,-96 142.5,-96 142.5,-84 142.5,-84 142.5,-78 148.5,-72 154.5,-72 154.5,-72 225.5,-72 225.5,-72 231.5,-72 237.5,-78 237.5,-84 237.5,-84 237.5,-96 237.5,-96 237.5,-102 231.5,-108 225.5,-108"/>
<text text-anchor="middle" x="190" y="-87.5" font-family="sans" font-size="10.00">essential_report</text>
</g>
<!-- 6&#45;&gt;14 -->
<g id="edge28" class="edge"><title>6&#45;&gt;14</title>
<path fill="none" stroke="grey" stroke-width="2" d="M412.731,-215.901C380.943,-197.955 329.489,-168.94 285,-144 266.93,-133.87 246.904,-122.691 229.916,-113.221"/>
<polygon fill="grey" stroke="grey" stroke-width="2" points="231.262,-109.964 220.823,-108.154 227.854,-116.079 231.262,-109.964"/>
</g>
<!-- 7&#45;&gt;0 -->
<g id="edge2" class="edge"><title>7&#45;&gt;0</title>
<path fill="none" stroke="grey" stroke-width="2" d="M113.262,-431.68C99.495,-405.525 76,-354.002 76,-307 76,-307 76,-307 76,-161 76,-117.07 85.0478,-99.8769 119,-72 167.044,-32.5528 241.158,-22.1206 285.585,-19.5658"/>
<polygon fill="grey" stroke="grey" stroke-width="2" points="285.844,-23.0576 295.669,-19.0924 285.516,-16.0653 285.844,-23.0576"/>
</g>
<!-- 7&#45;&gt;8 -->
<g id="edge23" class="edge"><title>7&#45;&gt;8</title>
<path fill="none" stroke="grey" stroke-width="2" d="M164.587,-431.876C188.033,-422.222 217.504,-410.087 242.297,-399.878"/>
<polygon fill="grey" stroke="grey" stroke-width="2" points="243.634,-403.112 251.548,-396.068 240.969,-396.639 243.634,-403.112"/>
</g>
<!-- 7&#45;&gt;14 -->
<g id="edge27" class="edge"><title>7&#45;&gt;14</title>
<path fill="none" stroke="grey" stroke-width="2" d="M126.232,-431.733C137,-374.194 171.723,-188.658 184.881,-118.351"/>
<polygon fill="grey" stroke="grey" stroke-width="2" points="188.401,-118.567 186.801,-108.094 181.521,-117.279 188.401,-118.567"/>
</g>
<!-- 8&#45;&gt;0 -->
<g id="edge13" class="edge"><title>8&#45;&gt;0</title>
<path fill="none" stroke="grey" stroke-width="2" d="M304.399,-359.99C310.698,-349.903 318.198,-336.653 323,-324 337.351,-286.184 342,-275.447 342,-235 342,-235 342,-235 342,-161 342,-120.86 334.449,-74.897 328.868,-46.4045"/>
<polygon fill="grey" stroke="grey" stroke-width="2" points="332.255,-45.4976 326.845,-36.3884 325.394,-46.8834 332.255,-45.4976"/>
</g>
<!-- 19 -->
<g id="node20" class="node"><title>19</title>
<path fill="none" stroke="#8fd856" stroke-width="2" d="M302,-324C302,-324 240,-324 240,-324 234,-324 228,-318 228,-312 228,-312 228,-300 228,-300 228,-294 234,-288 240,-288 240,-288 302,-288 302,-288 308,-288 314,-294 314,-300 314,-300 314,-312 314,-312 314,-318 308,-324 302,-324"/>
<text text-anchor="middle" x="271" y="-303.5" font-family="sans" font-size="10.00">merge_counts</text>
</g>
<!-- 8&#45;&gt;19 -->
<g id="edge37" class="edge"><title>8&#45;&gt;19</title>
<path fill="none" stroke="grey" stroke-width="2" d="M287.562,-359.697C285.111,-351.898 282.16,-342.509 279.432,-333.829"/>
<polygon fill="grey" stroke="grey" stroke-width="2" points="282.713,-332.595 276.376,-324.104 276.035,-334.694 282.713,-332.595"/>
</g>
<!-- 9 -->
<g id="node10" class="node"><title>9</title>
<path fill="none" stroke="#d88556" stroke-width="2" d="M286,-252C286,-252 256,-252 256,-252 250,-252 244,-246 244,-240 244,-240 244,-228 244,-228 244,-222 250,-216 256,-216 256,-216 286,-216 286,-216 292,-216 298,-222 298,-228 298,-228 298,-240 298,-240 298,-246 292,-252 286,-252"/>
<text text-anchor="middle" x="271" y="-231.5" font-family="sans" font-size="10.00">deseq2</text>
</g>
<!-- 9&#45;&gt;0 -->
<g id="edge6" class="edge"><title>9&#45;&gt;0</title>
<path fill="none" stroke="grey" stroke-width="2" d="M275.655,-215.844C278.436,-205.482 281.999,-192.003 285,-180 296.704,-133.19 309.413,-78.4778 316.766,-46.3966"/>
<polygon fill="grey" stroke="grey" stroke-width="2" points="320.228,-46.9572 319.046,-36.4286 313.404,-45.3967 320.228,-46.9572"/>
</g>
<!-- 10 -->
<g id="node11" class="node"><title>10</title>
<path fill="none" stroke="#d87556" stroke-width="2" d="M264,-180C264,-180 230,-180 230,-180 224,-180 218,-174 218,-168 218,-168 218,-156 218,-156 218,-150 224,-144 230,-144 230,-144 264,-144 264,-144 270,-144 276,-150 276,-156 276,-156 276,-168 276,-168 276,-174 270,-180 264,-180"/>
<text text-anchor="middle" x="247" y="-159.5" font-family="sans" font-size="10.00">de_stats</text>
</g>
<!-- 9&#45;&gt;10 -->
<g id="edge25" class="edge"><title>9&#45;&gt;10</title>
<path fill="none" stroke="grey" stroke-width="2" d="M265.067,-215.697C262.394,-207.898 259.174,-198.509 256.199,-189.829"/>
<polygon fill="grey" stroke="grey" stroke-width="2" points="259.418,-188.429 252.864,-180.104 252.797,-190.699 259.418,-188.429"/>
</g>
<!-- 10&#45;&gt;0 -->
<g id="edge4" class="edge"><title>10&#45;&gt;0</title>
<path fill="none" stroke="grey" stroke-width="2" d="M254.558,-143.997C262.762,-125.882 276.504,-96.5002 290,-72 294.916,-63.0755 300.671,-53.5591 305.986,-45.0888"/>
<polygon fill="grey" stroke="grey" stroke-width="2" points="309.108,-46.7021 311.521,-36.3856 303.201,-42.9459 309.108,-46.7021"/>
</g>
<!-- 10&#45;&gt;14 -->
<g id="edge29" class="edge"><title>10&#45;&gt;14</title>
<path fill="none" stroke="grey" stroke-width="2" d="M232.91,-143.697C226.077,-135.305 217.743,-125.07 210.244,-115.861"/>
<polygon fill="grey" stroke="grey" stroke-width="2" points="212.956,-113.649 203.928,-108.104 207.528,-118.069 212.956,-113.649"/>
</g>
<!-- 11 -->
<g id="node12" class="node"><title>11</title>
<path fill="none" stroke="#568ad8" stroke-width="2" d="M149.5,-180C149.5,-180 116.5,-180 116.5,-180 110.5,-180 104.5,-174 104.5,-168 104.5,-168 104.5,-156 104.5,-156 104.5,-150 110.5,-144 116.5,-144 116.5,-144 149.5,-144 149.5,-144 155.5,-144 161.5,-150 161.5,-156 161.5,-156 161.5,-168 161.5,-168 161.5,-174 155.5,-180 149.5,-180"/>
<text text-anchor="middle" x="133" y="-159.5" font-family="sans" font-size="10.00">frip_plot</text>
</g>
<!-- 11&#45;&gt;0 -->
<g id="edge9" class="edge"><title>11&#45;&gt;0</title>
<path fill="none" stroke="grey" stroke-width="2" d="M127.342,-143.66C122.151,-124.164 117.397,-92.5516 133,-72 151.415,-47.7457 235.945,-31.6115 285.839,-24.021"/>
<polygon fill="grey" stroke="grey" stroke-width="2" points="286.543,-27.4552 295.924,-22.5312 285.52,-20.5303 286.543,-27.4552"/>
</g>
<!-- 12 -->
<g id="node13" class="node"><title>12</title>
<path fill="none" stroke="#d89c56" stroke-width="2" d="M672,-108C672,-108 584,-108 584,-108 578,-108 572,-102 572,-96 572,-96 572,-84 572,-84 572,-78 578,-72 584,-72 584,-72 672,-72 672,-72 678,-72 684,-78 684,-84 684,-84 684,-96 684,-96 684,-102 678,-108 672,-108"/>
<text text-anchor="middle" x="628" y="-87.5" font-family="sans" font-size="10.00">fastq_screen_cases</text>
</g>
<!-- 12&#45;&gt;0 -->
<g id="edge10" class="edge"><title>12&#45;&gt;0</title>
<path fill="none" stroke="grey" stroke-width="2" d="M571.855,-75.279C567.171,-74.1602 562.505,-73.0551 558,-72 488.151,-55.643 406.403,-37.4116 360.06,-27.1608"/>
<polygon fill="grey" stroke="grey" stroke-width="2" points="360.692,-23.7163 350.173,-24.9763 359.182,-30.5514 360.692,-23.7163"/>
</g>
<!-- 13 -->
<g id="node14" class="node"><title>13</title>
<path fill="none" stroke="#61d856" stroke-width="2" d="M813.5,-108C813.5,-108 714.5,-108 714.5,-108 708.5,-108 702.5,-102 702.5,-96 702.5,-96 702.5,-84 702.5,-84 702.5,-78 708.5,-72 714.5,-72 714.5,-72 813.5,-72 813.5,-72 819.5,-72 825.5,-78 825.5,-84 825.5,-84 825.5,-96 825.5,-96 825.5,-102 819.5,-108 813.5,-108"/>
<text text-anchor="middle" x="764" y="-87.5" font-family="sans" font-size="10.00">fastq_screen_controls</text>
</g>
<!-- 13&#45;&gt;0 -->
<g id="edge7" class="edge"><title>13&#45;&gt;0</title>
<path fill="none" stroke="grey" stroke-width="2" d="M702.117,-73.8257C699.04,-73.1834 695.988,-72.5704 693,-72 571.993,-48.898 426.981,-30.9132 360.114,-23.1606"/>
<polygon fill="grey" stroke="grey" stroke-width="2" points="360.403,-19.6709 350.069,-22.005 359.603,-26.625 360.403,-19.6709"/>
</g>
<!-- 14&#45;&gt;0 -->
<g id="edge12" class="edge"><title>14&#45;&gt;0</title>
<path fill="none" stroke="grey" stroke-width="2" d="M222.535,-71.8761C242.009,-61.6269 266.794,-48.5822 286.873,-38.0141"/>
<polygon fill="grey" stroke="grey" stroke-width="2" points="288.513,-41.1064 295.732,-33.3517 285.253,-34.912 288.513,-41.1064"/>
</g>
<!-- 15&#45;&gt;1 -->
<g id="edge15" class="edge"><title>15&#45;&gt;1</title>
<path fill="none" stroke="grey" stroke-width="2" d="M293,-575.871C293,-551.67 293,-507.211 293,-478.393"/>
<polygon fill="grey" stroke="grey" stroke-width="2" points="296.5,-478.189 293,-468.189 289.5,-478.189 296.5,-478.189"/>
</g>
<!-- 18 -->
<g id="node19" class="node"><title>18</title>
<path fill="none" stroke="#56d8a2" stroke-width="2" d="M403.5,-540C403.5,-540 346.5,-540 346.5,-540 340.5,-540 334.5,-534 334.5,-528 334.5,-528 334.5,-516 334.5,-516 334.5,-510 340.5,-504 346.5,-504 346.5,-504 403.5,-504 403.5,-504 409.5,-504 415.5,-510 415.5,-516 415.5,-516 415.5,-528 415.5,-528 415.5,-534 409.5,-540 403.5,-540"/>
<text text-anchor="middle" x="375" y="-519.5" font-family="sans" font-size="10.00">align_stats_2</text>
</g>
<!-- 15&#45;&gt;18 -->
<g id="edge36" class="edge"><title>15&#45;&gt;18</title>
<path fill="none" stroke="grey" stroke-width="2" d="M313.27,-575.697C323.498,-566.965 336.061,-556.24 347.178,-546.75"/>
<polygon fill="grey" stroke="grey" stroke-width="2" points="349.63,-549.259 354.963,-540.104 345.085,-543.935 349.63,-549.259"/>
</g>
<!-- 16&#45;&gt;5 -->
<g id="edge18" class="edge"><title>16&#45;&gt;5</title>
<path fill="none" stroke="grey" stroke-width="2" d="M204.404,-575.697C197.877,-567.389 189.932,-557.277 182.753,-548.141"/>
<polygon fill="grey" stroke="grey" stroke-width="2" points="185.369,-545.805 176.439,-540.104 179.865,-550.13 185.369,-545.805"/>
</g>
<!-- 17&#45;&gt;6 -->
<g id="edge19" class="edge"><title>17&#45;&gt;6</title>
<path fill="none" stroke="grey" stroke-width="2" d="M398.057,-575.694C419.821,-550.359 456,-500.761 456,-451 456,-451 456,-451 456,-377 456,-336.829 450.777,-290.53 446.952,-262.013"/>
<polygon fill="grey" stroke="grey" stroke-width="2" points="450.405,-261.43 445.568,-252.003 443.471,-262.388 450.405,-261.43"/>
</g>
<!-- 18&#45;&gt;6 -->
<g id="edge20" class="edge"><title>18&#45;&gt;6</title>
<path fill="none" stroke="grey" stroke-width="2" d="M379.05,-503.966C390.409,-456.192 422.642,-320.623 436.517,-262.266"/>
<polygon fill="grey" stroke="grey" stroke-width="2" points="439.977,-262.845 438.885,-252.306 433.167,-261.226 439.977,-262.845"/>
</g>
<!-- 19&#45;&gt;9 -->
<g id="edge24" class="edge"><title>19&#45;&gt;9</title>
<path fill="none" stroke="grey" stroke-width="2" d="M271,-287.697C271,-279.983 271,-270.712 271,-262.112"/>
<polygon fill="grey" stroke="grey" stroke-width="2" points="274.5,-262.104 271,-252.104 267.5,-262.104 274.5,-262.104"/>
</g>
<!-- 20&#45;&gt;11 -->
<g id="edge26" class="edge"><title>20&#45;&gt;11</title>
<path fill="none" stroke="grey" stroke-width="2" d="M191.871,-359.849C180.753,-322.675 154.365,-234.439 141.021,-189.82"/>
<polygon fill="grey" stroke="grey" stroke-width="2" points="144.372,-188.81 138.154,-180.232 137.666,-190.816 144.372,-188.81"/>
</g>
</g>
</svg>
