<?xml version="1.0" encoding="UTF-8" standalone="no"?>
<!DOCTYPE svg PUBLIC "-//W3C//DTD SVG 1.1//EN"
 "http://www.w3.org/Graphics/SVG/1.1/DTD/svg11.dtd">
<!-- Generated by graphviz version 2.38.0 (20140413.2041)
 -->
<!-- Title: snakemake_dag Pages: 1 -->
<svg width="371pt" height="476pt"
 viewBox="0.00 0.00 370.50 476.00" xmlns="http://www.w3.org/2000/svg" xmlns:xlink="http://www.w3.org/1999/xlink">
<g id="graph0" class="graph" transform="scale(1 1) rotate(0) translate(4 472)">
<title>snakemake_dag</title>
<polygon fill="white" stroke="none" points="-4,4 -4,-472 366.5,-472 366.5,4 -4,4"/>
<!-- 0 -->
<g id="node1" class="node"><title>0</title>
<path fill="none" stroke="#d87556" stroke-width="2" d="M140,-36C140,-36 110,-36 110,-36 104,-36 98,-30 98,-24 98,-24 98,-12 98,-12 98,-6 104,-0 110,-0 110,-0 140,-0 140,-0 146,-0 152,-6 152,-12 152,-12 152,-24 152,-24 152,-30 146,-36 140,-36"/>
<text text-anchor="middle" x="125" y="-15.5" font-family="sans" font-size="10.00">all</text>
</g>
<!-- 1 -->
<g id="node2" class="node"><title>1</title>
<path fill="none" stroke="#d85656" stroke-width="2" d="M293.5,-468C293.5,-468 180.5,-468 180.5,-468 174.5,-468 168.5,-462 168.5,-456 168.5,-456 168.5,-444 168.5,-444 168.5,-438 174.5,-432 180.5,-432 180.5,-432 293.5,-432 293.5,-432 299.5,-432 305.5,-438 305.5,-444 305.5,-444 305.5,-456 305.5,-456 305.5,-462 299.5,-468 293.5,-468"/>
<text text-anchor="middle" x="237" y="-447.5" font-family="sans" font-size="10.00">mapReads_paired_cases</text>
</g>
<!-- 1&#45;&gt;0 -->
<g id="edge1" class="edge"><title>1&#45;&gt;0</title>
<path fill="none" stroke="grey" stroke-width="2" d="M245.095,-431.949C256.783,-405.72 277,-353.614 277,-307 277,-307 277,-307 277,-161 277,-119.533 276.833,-102.738 249,-72 226.287,-46.9168 189.695,-33.2627 162.135,-26.1277"/>
<polygon fill="grey" stroke="grey" stroke-width="2" points="162.604,-22.6407 152.063,-23.7021 160.966,-29.4461 162.604,-22.6407"/>
</g>
<!-- 3 -->
<g id="node4" class="node"><title>3</title>
<path fill="none" stroke="#56d8d0" stroke-width="2" d="M99.5,-396C99.5,-396 48.5,-396 48.5,-396 42.5,-396 36.5,-390 36.5,-384 36.5,-384 36.5,-372 36.5,-372 36.5,-366 42.5,-360 48.5,-360 48.5,-360 99.5,-360 99.5,-360 105.5,-360 111.5,-366 111.5,-372 111.5,-372 111.5,-384 111.5,-384 111.5,-390 105.5,-396 99.5,-396"/>
<text text-anchor="middle" x="74" y="-375.5" font-family="sans" font-size="10.00">makeTracks</text>
</g>
<!-- 1&#45;&gt;3 -->
<g id="edge8" class="edge"><title>1&#45;&gt;3</title>
<path fill="none" stroke="grey" stroke-width="2" d="M197.126,-431.876C174.078,-421.978 144.959,-409.473 120.826,-399.109"/>
<polygon fill="grey" stroke="grey" stroke-width="2" points="122.075,-395.836 111.505,-395.106 119.312,-402.268 122.075,-395.836"/>
</g>
<!-- 8 -->
<g id="node9" class="node"><title>8</title>
<path fill="none" stroke="#d89c56" stroke-width="2" d="M173,-396C173,-396 143,-396 143,-396 137,-396 131,-390 131,-384 131,-384 131,-372 131,-372 131,-366 137,-360 143,-360 143,-360 173,-360 173,-360 179,-360 185,-366 185,-372 185,-372 185,-384 185,-384 185,-390 179,-396 173,-396"/>
<text text-anchor="middle" x="158" y="-375.5" font-family="sans" font-size="10.00">bb2bed</text>
</g>
<!-- 1&#45;&gt;8 -->
<g id="edge13" class="edge"><title>1&#45;&gt;8</title>
<path fill="none" stroke="grey" stroke-width="2" d="M217.472,-431.697C207.618,-422.965 195.514,-412.24 184.804,-402.75"/>
<polygon fill="grey" stroke="grey" stroke-width="2" points="187.109,-400.117 177.303,-396.104 182.467,-405.356 187.109,-400.117"/>
</g>
<!-- 9 -->
<g id="node10" class="node"><title>9</title>
<path fill="none" stroke="#ced856" stroke-width="2" d="M231,-180C231,-180 165,-180 165,-180 159,-180 153,-174 153,-168 153,-168 153,-156 153,-156 153,-150 159,-144 165,-144 165,-144 231,-144 231,-144 237,-144 243,-150 243,-156 243,-156 243,-168 243,-168 243,-174 237,-180 231,-180"/>
<text text-anchor="middle" x="198" y="-159.5" font-family="sans" font-size="10.00">sample_counts</text>
</g>
<!-- 1&#45;&gt;9 -->
<g id="edge15" class="edge"><title>1&#45;&gt;9</title>
<path fill="none" stroke="grey" stroke-width="2" d="M237.606,-431.759C238.575,-392.741 238.741,-294.923 220,-216 217.882,-207.082 214.446,-197.729 210.911,-189.406"/>
<polygon fill="grey" stroke="grey" stroke-width="2" points="214.069,-187.893 206.79,-180.195 207.679,-190.752 214.069,-187.893"/>
</g>
<!-- 2 -->
<g id="node3" class="node"><title>2</title>
<path fill="none" stroke="#68d856" stroke-width="2" d="M136,-468C136,-468 12,-468 12,-468 6,-468 0,-462 0,-456 0,-456 0,-444 0,-444 0,-438 6,-432 12,-432 12,-432 136,-432 136,-432 142,-432 148,-438 148,-444 148,-444 148,-456 148,-456 148,-462 142,-468 136,-468"/>
<text text-anchor="middle" x="74" y="-447.5" font-family="sans" font-size="10.00">mapReads_paired_controls</text>
</g>
<!-- 2&#45;&gt;0 -->
<g id="edge4" class="edge"><title>2&#45;&gt;0</title>
<path fill="none" stroke="grey" stroke-width="2" d="M54.5864,-431.555C44.9818,-421.941 33.9803,-409.281 27,-396 8.04342,-359.932 5,-347.746 5,-307 5,-307 5,-307 5,-161 5,-108.333 53.7519,-65.1154 89.1078,-40.6977"/>
<polygon fill="grey" stroke="grey" stroke-width="2" points="91.4061,-43.3711 97.7701,-34.9006 87.5129,-37.5536 91.4061,-43.3711"/>
</g>
<!-- 2&#45;&gt;3 -->
<g id="edge9" class="edge"><title>2&#45;&gt;3</title>
<path fill="none" stroke="grey" stroke-width="2" d="M74,-431.697C74,-423.983 74,-414.712 74,-406.112"/>
<polygon fill="grey" stroke="grey" stroke-width="2" points="77.5001,-406.104 74,-396.104 70.5001,-406.104 77.5001,-406.104"/>
</g>
<!-- 2&#45;&gt;8 -->
<g id="edge14" class="edge"><title>2&#45;&gt;8</title>
<path fill="none" stroke="grey" stroke-width="2" d="M94.7641,-431.697C105.241,-422.965 118.111,-412.24 129.5,-402.75"/>
<polygon fill="grey" stroke="grey" stroke-width="2" points="132.033,-405.195 137.475,-396.104 127.552,-399.817 132.033,-405.195"/>
</g>
<!-- 3&#45;&gt;0 -->
<g id="edge6" class="edge"><title>3&#45;&gt;0</title>
<path fill="none" stroke="grey" stroke-width="2" d="M67.7267,-359.776C58.6684,-333.322 43,-280.925 43,-235 43,-235 43,-235 43,-161 43,-114.88 75.8402,-70.2636 99.9552,-43.7186"/>
<polygon fill="grey" stroke="grey" stroke-width="2" points="102.525,-46.0951 106.802,-36.4018 97.4134,-41.3124 102.525,-46.0951"/>
</g>
<!-- 4 -->
<g id="node5" class="node"><title>4</title>
<path fill="none" stroke="#56d86b" stroke-width="2" d="M180,-324C180,-324 136,-324 136,-324 130,-324 124,-318 124,-312 124,-312 124,-300 124,-300 124,-294 130,-288 136,-288 136,-288 180,-288 180,-288 186,-288 192,-294 192,-300 192,-300 192,-312 192,-312 192,-318 186,-324 180,-324"/>
<text text-anchor="middle" x="158" y="-303.5" font-family="sans" font-size="10.00">call_peaks</text>
</g>
<!-- 4&#45;&gt;0 -->
<g id="edge5" class="edge"><title>4&#45;&gt;0</title>
<path fill="none" stroke="grey" stroke-width="2" d="M130.66,-287.775C118.89,-278.718 106.383,-266.478 100,-252 69.3979,-182.581 96.6427,-90.6665 113.698,-45.8615"/>
<polygon fill="grey" stroke="grey" stroke-width="2" points="117.063,-46.8689 117.466,-36.2817 110.549,-44.3066 117.063,-46.8689"/>
</g>
<!-- 5 -->
<g id="node6" class="node"><title>5</title>
<path fill="none" stroke="#d8bc56" stroke-width="2" d="M199,-252C199,-252 121,-252 121,-252 115,-252 109,-246 109,-240 109,-240 109,-228 109,-228 109,-222 115,-216 121,-216 121,-216 199,-216 199,-216 205,-216 211,-222 211,-228 211,-228 211,-240 211,-240 211,-246 205,-252 199,-252"/>
<text text-anchor="middle" x="160" y="-231.5" font-family="sans" font-size="10.00">consensus_peaks</text>
</g>
<!-- 4&#45;&gt;5 -->
<g id="edge11" class="edge"><title>4&#45;&gt;5</title>
<path fill="none" stroke="grey" stroke-width="2" d="M158.494,-287.697C158.715,-279.983 158.98,-270.712 159.225,-262.112"/>
<polygon fill="grey" stroke="grey" stroke-width="2" points="162.724,-262.2 159.511,-252.104 155.727,-262 162.724,-262.2"/>
</g>
<!-- 5&#45;&gt;0 -->
<g id="edge2" class="edge"><title>5&#45;&gt;0</title>
<path fill="none" stroke="grey" stroke-width="2" d="M153.881,-215.533C150.508,-205.294 146.508,-192.044 144,-180 134.307,-133.459 129.134,-78.2458 126.735,-46.0642"/>
<polygon fill="grey" stroke="grey" stroke-width="2" points="130.226,-45.8059 126.026,-36.0792 123.244,-46.3021 130.226,-45.8059"/>
</g>
<!-- 5&#45;&gt;9 -->
<g id="edge16" class="edge"><title>5&#45;&gt;9</title>
<path fill="none" stroke="grey" stroke-width="2" d="M169.393,-215.697C173.765,-207.644 179.057,-197.894 183.895,-188.982"/>
<polygon fill="grey" stroke="grey" stroke-width="2" points="187.02,-190.563 188.715,-180.104 180.868,-187.223 187.02,-190.563"/>
</g>
<!-- 6 -->
<g id="node7" class="node"><title>6</title>
<path fill="none" stroke="#56c1d8" stroke-width="2" d="M228,-108C228,-108 166,-108 166,-108 160,-108 154,-102 154,-96 154,-96 154,-84 154,-84 154,-78 160,-72 166,-72 166,-72 228,-72 228,-72 234,-72 240,-78 240,-84 240,-84 240,-96 240,-96 240,-102 234,-108 228,-108"/>
<text text-anchor="middle" x="197" y="-87.5" font-family="sans" font-size="10.00">merge_counts</text>
</g>
<!-- 6&#45;&gt;0 -->
<g id="edge7" class="edge"><title>6&#45;&gt;0</title>
<path fill="none" stroke="grey" stroke-width="2" d="M179.202,-71.6966C170.396,-63.135 159.618,-52.6562 149.999,-43.3045"/>
<polygon fill="grey" stroke="grey" stroke-width="2" points="152.203,-40.5657 142.593,-36.1043 147.323,-45.5846 152.203,-40.5657"/>
</g>
<!-- 7 -->
<g id="node8" class="node"><title>7</title>
<path fill="none" stroke="#afd856" stroke-width="2" d="M350.5,-108C350.5,-108 317.5,-108 317.5,-108 311.5,-108 305.5,-102 305.5,-96 305.5,-96 305.5,-84 305.5,-84 305.5,-78 311.5,-72 317.5,-72 317.5,-72 350.5,-72 350.5,-72 356.5,-72 362.5,-78 362.5,-84 362.5,-84 362.5,-96 362.5,-96 362.5,-102 356.5,-108 350.5,-108"/>
<text text-anchor="middle" x="334" y="-87.5" font-family="sans" font-size="10.00">frip_plot</text>
</g>
<!-- 7&#45;&gt;0 -->
<g id="edge3" class="edge"><title>7&#45;&gt;0</title>
<path fill="none" stroke="grey" stroke-width="2" d="M305.421,-77.3903C300.627,-75.5324 295.688,-73.6728 291,-72 247.103,-56.3352 195.921,-40.3297 162.12,-30.0669"/>
<polygon fill="grey" stroke="grey" stroke-width="2" points="162.8,-26.6162 152.215,-27.073 160.775,-33.3168 162.8,-26.6162"/>
</g>
<!-- 8&#45;&gt;4 -->
<g id="edge10" class="edge"><title>8&#45;&gt;4</title>
<path fill="none" stroke="grey" stroke-width="2" d="M158,-359.697C158,-351.983 158,-342.712 158,-334.112"/>
<polygon fill="grey" stroke="grey" stroke-width="2" points="161.5,-334.104 158,-324.104 154.5,-334.104 161.5,-334.104"/>
</g>
<!-- 9&#45;&gt;6 -->
<g id="edge12" class="edge"><title>9&#45;&gt;6</title>
<path fill="none" stroke="grey" stroke-width="2" d="M197.753,-143.697C197.643,-135.983 197.51,-126.712 197.387,-118.112"/>
<polygon fill="grey" stroke="grey" stroke-width="2" points="200.887,-118.053 197.244,-108.104 193.888,-118.153 200.887,-118.053"/>
</g>
</g>
</svg>
