<?xml version="1.0" encoding="UTF-8" standalone="no"?>
<!DOCTYPE svg PUBLIC "-//W3C//DTD SVG 1.1//EN"
 "http://www.w3.org/Graphics/SVG/1.1/DTD/svg11.dtd">
<!-- Generated by graphviz version 2.38.0 (20140413.2041)
 -->
<!-- Title: snakemake_dag Pages: 1 -->
<svg width="313pt" height="260pt"
 viewBox="0.00 0.00 312.50 260.00" xmlns="http://www.w3.org/2000/svg" xmlns:xlink="http://www.w3.org/1999/xlink">
<g id="graph0" class="graph" transform="scale(1 1) rotate(0) translate(4 256)">
<title>snakemake_dag</title>
<polygon fill="white" stroke="none" points="-4,4 -4,-256 308.5,-256 308.5,4 -4,4"/>
<!-- 0 -->
<g id="node1" class="node"><title>0</title>
<path fill="none" stroke="#56c1d8" stroke-width="2" d="M177.5,-36C177.5,-36 147.5,-36 147.5,-36 141.5,-36 135.5,-30 135.5,-24 135.5,-24 135.5,-12 135.5,-12 135.5,-6 141.5,-0 147.5,-0 147.5,-0 177.5,-0 177.5,-0 183.5,-0 189.5,-6 189.5,-12 189.5,-12 189.5,-24 189.5,-24 189.5,-30 183.5,-36 177.5,-36"/>
<text text-anchor="middle" x="162.5" y="-15.5" font-family="sans" font-size="10.00">all</text>
</g>
<!-- 1 -->
<g id="node2" class="node"><title>1</title>
<path fill="none" stroke="#bed856" stroke-width="2" d="M125,-252C125,-252 12,-252 12,-252 6,-252 0,-246 0,-240 0,-240 0,-228 0,-228 0,-222 6,-216 12,-216 12,-216 125,-216 125,-216 131,-216 137,-222 137,-228 137,-228 137,-240 137,-240 137,-246 131,-252 125,-252"/>
<text text-anchor="middle" x="68.5" y="-231.5" font-family="sans" font-size="10.00">mapReads_paired_cases</text>
</g>
<!-- 1&#45;&gt;0 -->
<g id="edge3" class="edge"><title>1&#45;&gt;0</title>
<path fill="none" stroke="grey" stroke-width="2" d="M53.3957,-215.605C45.7807,-205.812 37.1879,-192.972 32.5,-180 16.1515,-134.763 -1.6928,-111.677 25.5,-72 47.7461,-39.5411 92.9461,-26.9561 125.348,-22.0796"/>
<polygon fill="grey" stroke="grey" stroke-width="2" points="125.919,-25.5346 135.373,-20.7517 125,-18.5952 125.919,-25.5346"/>
</g>
<!-- 2 -->
<g id="node3" class="node"><title>2</title>
<path fill="none" stroke="#56d88a" stroke-width="2" d="M163.5,-180C163.5,-180 125.5,-180 125.5,-180 119.5,-180 113.5,-174 113.5,-168 113.5,-168 113.5,-156 113.5,-156 113.5,-150 119.5,-144 125.5,-144 125.5,-144 163.5,-144 163.5,-144 169.5,-144 175.5,-150 175.5,-156 175.5,-156 175.5,-168 175.5,-168 175.5,-174 169.5,-180 163.5,-180"/>
<text text-anchor="middle" x="144.5" y="-159.5" font-family="sans" font-size="10.00">sort_bam</text>
</g>
<!-- 1&#45;&gt;2 -->
<g id="edge7" class="edge"><title>1&#45;&gt;2</title>
<path fill="none" stroke="grey" stroke-width="2" d="M87.2865,-215.697C96.674,-207.05 108.184,-196.449 118.413,-187.027"/>
<polygon fill="grey" stroke="grey" stroke-width="2" points="120.945,-189.454 125.93,-180.104 116.203,-184.305 120.945,-189.454"/>
</g>
<!-- 4 -->
<g id="node5" class="node"><title>4</title>
<path fill="none" stroke="#d88d56" stroke-width="2" d="M257,-180C257,-180 206,-180 206,-180 200,-180 194,-174 194,-168 194,-168 194,-156 194,-156 194,-150 200,-144 206,-144 206,-144 257,-144 257,-144 263,-144 269,-150 269,-156 269,-156 269,-168 269,-168 269,-174 263,-180 257,-180"/>
<text text-anchor="middle" x="231.5" y="-159.5" font-family="sans" font-size="10.00">makeTracks</text>
</g>
<!-- 1&#45;&gt;4 -->
<g id="edge9" class="edge"><title>1&#45;&gt;4</title>
<path fill="none" stroke="grey" stroke-width="2" d="M108.374,-215.876C131.422,-205.978 160.541,-193.473 184.674,-183.109"/>
<polygon fill="grey" stroke="grey" stroke-width="2" points="186.188,-186.268 193.995,-179.106 183.425,-179.836 186.188,-186.268"/>
</g>
<!-- 7 -->
<g id="node8" class="node"><title>7</title>
<path fill="none" stroke="#568ad8" stroke-width="2" d="M83.5,-180C83.5,-180 53.5,-180 53.5,-180 47.5,-180 41.5,-174 41.5,-168 41.5,-168 41.5,-156 41.5,-156 41.5,-150 47.5,-144 53.5,-144 53.5,-144 83.5,-144 83.5,-144 89.5,-144 95.5,-150 95.5,-156 95.5,-156 95.5,-168 95.5,-168 95.5,-174 89.5,-180 83.5,-180"/>
<text text-anchor="middle" x="68.5" y="-159.5" font-family="sans" font-size="10.00">bb2bed</text>
</g>
<!-- 1&#45;&gt;7 -->
<g id="edge13" class="edge"><title>1&#45;&gt;7</title>
<path fill="none" stroke="grey" stroke-width="2" d="M68.5,-215.697C68.5,-207.983 68.5,-198.712 68.5,-190.112"/>
<polygon fill="grey" stroke="grey" stroke-width="2" points="72.0001,-190.104 68.5,-180.104 65.0001,-190.104 72.0001,-190.104"/>
</g>
<!-- 2&#45;&gt;0 -->
<g id="edge6" class="edge"><title>2&#45;&gt;0</title>
<path fill="none" stroke="grey" stroke-width="2" d="M144.529,-143.843C144.777,-125.849 145.795,-96.7954 149.5,-72 150.78,-63.4351 152.803,-54.2296 154.876,-45.9329"/>
<polygon fill="grey" stroke="grey" stroke-width="2" points="158.322,-46.5873 157.475,-36.0264 151.552,-44.8106 158.322,-46.5873"/>
</g>
<!-- 5 -->
<g id="node6" class="node"><title>5</title>
<path fill="none" stroke="#d8bc56" stroke-width="2" d="M220,-108C220,-108 171,-108 171,-108 165,-108 159,-102 159,-96 159,-96 159,-84 159,-84 159,-78 165,-72 171,-72 171,-72 220,-72 220,-72 226,-72 232,-78 232,-84 232,-84 232,-96 232,-96 232,-102 226,-108 220,-108"/>
<text text-anchor="middle" x="195.5" y="-87.5" font-family="sans" font-size="10.00">normTracks</text>
</g>
<!-- 2&#45;&gt;5 -->
<g id="edge11" class="edge"><title>2&#45;&gt;5</title>
<path fill="none" stroke="grey" stroke-width="2" d="M157.107,-143.697C163.097,-135.474 170.376,-125.483 176.979,-116.421"/>
<polygon fill="grey" stroke="grey" stroke-width="2" points="179.978,-118.248 183.038,-108.104 174.321,-114.126 179.978,-118.248"/>
</g>
<!-- 3 -->
<g id="node4" class="node"><title>3</title>
<path fill="none" stroke="#59d856" stroke-width="2" d="M292.5,-252C292.5,-252 168.5,-252 168.5,-252 162.5,-252 156.5,-246 156.5,-240 156.5,-240 156.5,-228 156.5,-228 156.5,-222 162.5,-216 168.5,-216 168.5,-216 292.5,-216 292.5,-216 298.5,-216 304.5,-222 304.5,-228 304.5,-228 304.5,-240 304.5,-240 304.5,-246 298.5,-252 292.5,-252"/>
<text text-anchor="middle" x="230.5" y="-231.5" font-family="sans" font-size="10.00">mapReads_paired_controls</text>
</g>
<!-- 3&#45;&gt;0 -->
<g id="edge5" class="edge"><title>3&#45;&gt;0</title>
<path fill="none" stroke="grey" stroke-width="2" d="M251.767,-215.701C261.609,-206.305 272.263,-193.798 277.5,-180 294.794,-134.434 288.465,-110.437 258.5,-72 243.444,-52.6872 219.281,-39.4016 198.965,-30.9621"/>
<polygon fill="grey" stroke="grey" stroke-width="2" points="200.24,-27.703 189.653,-27.3123 197.686,-34.2202 200.24,-27.703"/>
</g>
<!-- 3&#45;&gt;2 -->
<g id="edge8" class="edge"><title>3&#45;&gt;2</title>
<path fill="none" stroke="grey" stroke-width="2" d="M209.242,-215.697C198.411,-206.881 185.082,-196.032 173.34,-186.474"/>
<polygon fill="grey" stroke="grey" stroke-width="2" points="175.479,-183.703 165.514,-180.104 171.06,-189.132 175.479,-183.703"/>
</g>
<!-- 3&#45;&gt;4 -->
<g id="edge10" class="edge"><title>3&#45;&gt;4</title>
<path fill="none" stroke="grey" stroke-width="2" d="M230.747,-215.697C230.857,-207.983 230.99,-198.712 231.113,-190.112"/>
<polygon fill="grey" stroke="grey" stroke-width="2" points="234.612,-190.153 231.256,-180.104 227.613,-190.053 234.612,-190.153"/>
</g>
<!-- 3&#45;&gt;7 -->
<g id="edge14" class="edge"><title>3&#45;&gt;7</title>
<path fill="none" stroke="grey" stroke-width="2" d="M188.593,-215.902C166.101,-206.605 137.734,-194.689 104.936,-180.116"/>
<polygon fill="grey" stroke="grey" stroke-width="2" points="106.127,-176.815 95.5692,-175.935 103.274,-183.207 106.127,-176.815"/>
</g>
<!-- 4&#45;&gt;0 -->
<g id="edge1" class="edge"><title>4&#45;&gt;0</title>
<path fill="none" stroke="grey" stroke-width="2" d="M238.649,-143.842C245.286,-125.072 252.491,-94.6459 240.5,-72 231.598,-55.188 214.708,-42.7188 198.915,-34.1136"/>
<polygon fill="grey" stroke="grey" stroke-width="2" points="200.313,-30.898 189.812,-29.4899 197.143,-37.1391 200.313,-30.898"/>
</g>
<!-- 5&#45;&gt;0 -->
<g id="edge2" class="edge"><title>5&#45;&gt;0</title>
<path fill="none" stroke="grey" stroke-width="2" d="M187.343,-71.6966C183.586,-63.7284 179.047,-54.0995 174.882,-45.2641"/>
<polygon fill="grey" stroke="grey" stroke-width="2" points="177.994,-43.6571 170.563,-36.1043 171.662,-46.6421 177.994,-43.6571"/>
</g>
<!-- 6 -->
<g id="node7" class="node"><title>6</title>
<path fill="none" stroke="#88d856" stroke-width="2" d="M90.5,-108C90.5,-108 46.5,-108 46.5,-108 40.5,-108 34.5,-102 34.5,-96 34.5,-96 34.5,-84 34.5,-84 34.5,-78 40.5,-72 46.5,-72 46.5,-72 90.5,-72 90.5,-72 96.5,-72 102.5,-78 102.5,-84 102.5,-84 102.5,-96 102.5,-96 102.5,-102 96.5,-108 90.5,-108"/>
<text text-anchor="middle" x="68.5" y="-87.5" font-family="sans" font-size="10.00">call_peaks</text>
</g>
<!-- 6&#45;&gt;0 -->
<g id="edge4" class="edge"><title>6&#45;&gt;0</title>
<path fill="none" stroke="grey" stroke-width="2" d="M91.736,-71.6966C103.688,-62.796 118.423,-51.8232 131.347,-42.1989"/>
<polygon fill="grey" stroke="grey" stroke-width="2" points="133.601,-44.8842 139.531,-36.1043 129.42,-39.2699 133.601,-44.8842"/>
</g>
<!-- 7&#45;&gt;6 -->
<g id="edge12" class="edge"><title>7&#45;&gt;6</title>
<path fill="none" stroke="grey" stroke-width="2" d="M68.5,-143.697C68.5,-135.983 68.5,-126.712 68.5,-118.112"/>
<polygon fill="grey" stroke="grey" stroke-width="2" points="72.0001,-118.104 68.5,-108.104 65.0001,-118.104 72.0001,-118.104"/>
</g>
</g>
</svg>
